<?xml version="1.0" encoding="UTF-8" standalone="no"?>
<svg width="20px" height="50px" viewBox="0 0 20 50" version="1.1" xmlns="http://www.w3.org/2000/svg" xmlns:xlink="http://www.w3.org/1999/xlink">
    <!-- Generator: Sketch 39.1 (31720) - http://www.bohemiancoding.com/sketch -->
    <title>sharePin</title>
    <desc>Created with Sketch.</desc>
    <defs>
        <polygon id="path-1" points="2.08333338 32.9999996 3.83333333 33 3.83333333 0.162921043 0.333333333 0.162921043 0.333333333 33"></polygon>
        <polygon id="path-3" points="1.3112745 32.321783 2.08333333 30.2484779 2.08333333 0.177856727 0.333333333 0.177856727 0.281862745 32.321783"></polygon>
    </defs>
    <g id="Symbols" stroke="none" stroke-width="1" fill="none" fill-rule="evenodd">
        <g id="sharePin">
            <g id="pin" transform="translate(1.500000, 1.000000)">
                <g transform="translate(6.666667, 16.389733)">
                    <mask id="mask-2" fill="white">
                        <use xlink:href="#path-1"></use>
                    </mask>
                    <use id="Mask" fill="#BDBDBD" xlink:href="#path-1"></use>
                    <path
                        d="M-9.57108271,-7.25976614 C-9.57108271,-0.519659119 -4.44313965,4.77613925 2.08333333,4.77613925 C8.60980632,4.77613925 13.7377494,-0.519659119 13.7377494,-7.25976614 C13.7377494,-13.9998732 8.60980632,-19.2956715 2.08333333,-19.2956715 C-4.44313965,-19.2956715 -9.57108271,-13.9998732 -9.57108271,-7.25976614 Z"
                        fill-opacity="0.330000013"
                        fill="#000000"
                        opacity="0.25"
                        mask="url(#mask-2)"></path>
                </g>
                <g transform="translate(6.666667, 16.389733)">
                    <mask id="mask-4" fill="white">
                        <use xlink:href="#path-3"></use>
                    </mask>
                    <use id="Mask" fill="#FFFFFF" xlink:href="#path-3"></use>
                    <path
                        d="M2.08333333,-21.0645901 C-4.44313965,-21.0645901 -9.57108271,-15.2833027 -9.57108271,-7.92530064 C-9.57108271,-0.567298542 -4.44313965,5.21398882 2.08333333,5.21398882 C8.60980632,5.21398882 13.7377494,-0.567298542 13.7377494,-7.92530064 C13.7377494,-15.2833027 8.60980632,-21.0645901 2.08333333,-21.0645901 L2.08333333,-21.0645901 Z"
                        fill-opacity="0.330000013"
                        fill="#000000"
                        opacity="0.659999967"
                        mask="url(#mask-4)"></path>
                </g>
                <path d="M8.75,0 C3.85,0 0,3.85 0,8.75 C0,13.65 3.85,17.5 8.75,17.5 C13.65,17.5 17.5,13.65 17.5,8.75 C17.5,3.85 13.65,0 8.75,0 L8.75,0 Z" fill="#FF2929"></path>
                <path
                    d="M5.25,9.99712074 C3.85,9.99712074 2.625,8.72475992 2.625,7.27063326 C2.625,5.81650661 3.85,4.54414579 5.25,4.54414579 C6.65,4.54414579 7.875,5.81650661 7.875,7.27063326 C7.875,8.72475992 6.65,9.99712074 5.25,9.99712074 L5.25,9.99712074 Z"
                    id="Path"
                    fill="#FFFFFF"></path>
            </g>
        </g>
    </g>
</svg>
